<?xml version="1.0" encoding="UTF-8" standalone="no"?>
<!DOCTYPE svg PUBLIC "-//W3C//DTD SVG 1.1//EN" "http://www.w3.org/Graphics/SVG/1.1/DTD/svg11.dtd">
<svg width="100%" height="100%" viewBox="0 0 120 120" version="1.1" xmlns="http://www.w3.org/2000/svg" xmlns:xlink="http://www.w3.org/1999/xlink" xml:space="preserve" style="fill-rule:evenodd;clip-rule:evenodd;stroke-linejoin:round;stroke-miterlimit:1.41421;"><path d="M60,0c33.115,0 60,26.885 60,60c0,33.115 -26.885,60 -60,60c-33.115,0 -60,-26.885 -60,-60c0,-33.115 26.885,-60 60,-60Zm24.011,94.848c-5.452,0.908 -11.863,1.15 -24.011,1.15c-12.147,0 -18.559,-0.242 -24.011,-1.15c-7.636,-1.272 -11.989,-3.995 -11.989,-8.569c0,-6.043 7.776,-14.47 18.587,-19.347c4.369,6.625 10.539,11.068 17.413,11.068c6.874,0 13.044,-4.443 17.413,-11.068c10.811,4.877 18.587,13.304 18.587,19.347c0,4.574 -4.353,7.297 -11.989,8.569Zm-24.011,-22.848c-9.965,0 -18,-13.229 -18,-26.821c0,-12.657 7.514,-21.177 18,-21.177c10.486,0 18,8.52 18,21.177c0,13.592 -8.035,26.821 -18,26.821Z" style="fill:#337ab7;"/></svg>
